<?xml version="1.0" encoding="UTF-8"?>
<svg width="14px" height="14px" viewBox="0 0 14 14" version="1.1" xmlns="http://www.w3.org/2000/svg" xmlns:xlink="http://www.w3.org/1999/xlink">
    <title>icon_添加 (1)备份</title>
    <g id="页面-1" stroke="none" stroke-width="1" fill="none" fill-rule="evenodd">
        <g id="项目管理-信息采集3" transform="translate(-1070.000000, -279.000000)" fill="#1B604F" fill-rule="nonzero">
            <g id="icon_添加-(1)备份" transform="translate(1070.000000, 279.000000)">
                <path d="M7,14 C3.13413333,14 0,10.8658667 0,7 C0,3.13413333 3.13413333,0 7,0 C10.8658667,0 14,3.13413333 14,7 C14,10.8658667 10.8658667,14 7,14 Z M7,13.0666667 C10.3506667,13.0666667 13.0666667,10.3506667 13.0666667,7 C13.0666667,3.64933333 10.3506667,0.933333333 7,0.933333333 C3.64933333,0.933333333 0.933333333,3.64933333 0.933333333,7 C0.933333333,10.3506667 3.64933333,13.0666667 7,13.0666667 Z" id="形状"></path>
                <path d="M3.26666667,7.46666667 C3.00893378,7.46666667 2.8,7.25773288 2.8,7 C2.8,6.74226712 3.00893378,6.53333333 3.26666667,6.53333333 L10.7333333,6.53333333 C10.9910662,6.53333333 11.2,6.74226712 11.2,7 C11.2,7.25773288 10.9910662,7.46666667 10.7333333,7.46666667 L3.26666667,7.46666667 Z" id="路径"></path>
                <path d="M6.53333333,3.26666667 C6.53333333,3.00893378 6.74226712,2.8 7,2.8 C7.25773288,2.8 7.46666667,3.00893378 7.46666667,3.26666667 L7.46666667,10.7333333 C7.46666667,10.9910662 7.25773288,11.2 7,11.2 C6.74226712,11.2 6.53333333,10.9910662 6.53333333,10.7333333 L6.53333333,3.26666667 Z" id="路径"></path>
            </g>
        </g>
    </g>
</svg>