<?xml version="1.0" standalone="no"?><!DOCTYPE svg PUBLIC "-//W3C//DTD SVG 1.1//EN" "http://www.w3.org/Graphics/SVG/1.1/DTD/svg11.dtd"><svg t="1675066916247" class="icon" viewBox="0 0 1194 1024" version="1.1" xmlns="http://www.w3.org/2000/svg" p-id="1266" xmlns:xlink="http://www.w3.org/1999/xlink" width="233.203125" height="200"><path d="M145.714798 0.764414h853.47305a358.791727 358.791727 0 0 1 63.454929 1.477679 168.540609 168.540609 0 0 1 71.525326 30.832332 154.786832 154.786832 0 0 1 55.668699 89.513222 266.294731 266.294731 0 0 1 2.983774 58.368304v661.204333a275.814391 275.814391 0 0 1-2.10285 53.992102 153.650156 153.650156 0 0 1-52.059753 90.706731 167.887021 167.887021 0 0 1-70.644403 33.531937 365.469697 365.469697 0 0 1-70.331817 2.387019h-807.039842a324.492534 324.492534 0 0 1-72.434668-3.893114 152.683981 152.683981 0 0 1-108.637793-96.617446 247.62483 247.62483 0 0 1-8.979739-85.250688V204.882977q0-32.310011 0.312586-64.648438a172.177972 172.177972 0 0 1 17.931061-59.675481A159.475619 159.475619 0 0 1 102.038029 9.3179 174.792326 174.792326 0 0 1 130.767511 2.128425z m4.774039 85.250688l-6.280134 0.596755-14.947287 3.893115a69.592978 69.592978 0 0 0-33.816106 28.416895 124.522838 124.522838 0 0 0-9.576494 65.358861v641.738759a254.245967 254.245967 0 0 0 2.074433 60.78374 68.20055 68.20055 0 0 0 45.467034 47.569884 189.654363 189.654363 0 0 0 49.672733 3.01219h819.060189a248.477337 248.477337 0 0 0 52.08817-1.506095 79.567308 79.567308 0 0 0 32.025842-17.050138c21.710508-17.561642 21.227421-46.632126 21.227421-85.904276V184.53648a204.885819 204.885819 0 0 0-2.074433-47.285715 69.109891 69.109891 0 0 0-24.864784-37.425052c-21.341089-15.686127-44.557693-13.753778-81.101821-13.753777H150.488837zM666.084995 312.69668a36.43046 36.43046 0 0 1 41.318167 39.783654 206.477165 206.477165 0 0 1-9.803829 32.366845l-82.977336 250.068683c-9.576494 27.138136-17.050138 86.188445-60.613239 72.889338a36.572545 36.572545 0 0 1-26.427713-37.794472 360.894577 360.894577 0 0 1 17.959478-57.714715l70.104482-210.881784 15.572459-47.228881a100.141141 100.141141 0 0 1 12.531851-29.695656A49.530649 49.530649 0 0 1 666.084995 312.69668z m-217.41767 34.441278a36.288376 36.288376 0 0 1 37.25455 52.287088l-65.699863 88.404963-18.272064 24.296446a28.161144 28.161144 0 0 0-6.450635 9.093407l36.600962 48.592892 37.567136 49.956903a130.717721 130.717721 0 0 1 17.277473 23.955443 36.629379 36.629379 0 0 1-37.254551 50.610491 42.19909 42.19909 0 0 1-19.295072-7.757812 101.306234 101.306234 0 0 1-16.595467-20.914836L381.347699 622.440845l-46.063788-61.096326a91.985492 91.985492 0 0 1-21.341089-34.100275c-5.001374-22.136762 16.510216-40.692995 25.063702-52.287089l59.277645-78.62955a197.326925 197.326925 0 0 1 35.890539-44.188273 102.300825 102.300825 0 0 1 14.492617-5.001374z m344.75378 0a50.89466 50.89466 0 0 1 46.745794 31.258585l30.462912 40.494077 45.722786 60.726906a87.012535 87.012535 0 0 1 21.682091 35.435869 66.040866 66.040866 0 0 1-23.387105 48.592892l-71.04224 94.457762a66.523953 66.523953 0 0 1-41.318166 36.117875 36.657796 36.657796 0 0 1-37.254551-50.951494 225.232316 225.232316 0 0 1 27.081302-36.771464l64.364269-86.04636-64.023266-85.250688a211.847959 211.847959 0 0 1-27.763307-38.135474 37.425052 37.425052 0 0 1 15.572459-45.467033 133.360492 133.360492 0 0 1 13.128605-4.461453z" fill="" p-id="1267"></path></svg>