<?xml version="1.0" standalone="no"?><!DOCTYPE svg PUBLIC "-//W3C//DTD SVG 1.1//EN" "http://www.w3.org/Graphics/SVG/1.1/DTD/svg11.dtd"><svg t="1676428003651" class="icon" viewBox="0 0 1024 1024" version="1.1" xmlns="http://www.w3.org/2000/svg" p-id="1902" xmlns:xlink="http://www.w3.org/1999/xlink" width="200" height="200"><path d="M712.145455 316.509091h-390.981819c-18.618182 0-37.236364 13.963636-37.236363 37.236364s18.618182 37.236364 37.236363 37.236363h158.254546v344.436364c0 18.618182 18.618182 37.236364 37.236363 37.236363s37.236364-18.618182 37.236364-37.236363v-344.436364h158.254546c18.618182 0 37.236364-18.618182 37.236363-37.236363s-18.618182-37.236364-37.236363-37.236364z" p-id="1903"></path><path d="M842.472727 51.2h-665.6c-69.818182 0-130.327273 60.509091-130.327272 130.327273v665.6c0 69.818182 60.509091 130.327273 130.327272 130.327272h665.6c74.472727 0 130.327273-55.854545 130.327273-130.327272V176.872727c0-69.818182-55.854545-125.672727-130.327273-125.672727z m60.509091 795.927273c0 32.581818-23.272727 55.854545-55.854545 55.854545h-665.6c-32.581818 0-55.854545-23.272727-55.854546-55.854545V176.872727c0-32.581818 23.272727-55.854545 55.854546-55.854545h665.6c32.581818 0 55.854545 23.272727 55.854545 55.854545v670.254546z" p-id="1904"></path></svg>