<?xml version="1.0" encoding="UTF-8"?>
<svg width="41px" height="40px" viewBox="0 0 41 40" version="1.1" xmlns="http://www.w3.org/2000/svg" xmlns:xlink="http://www.w3.org/1999/xlink">
    <title>编组 2</title>
    <g id="页面-1" stroke="none" stroke-width="1" fill="none" fill-rule="evenodd">
        <g id="注册" transform="translate(-60.000000, -30.000000)">
            <g id="编组-2" transform="translate(60.000000, 30.000000)">
                <path d="M14.7437933,40 C12.8061008,39.4536784 10.9652929,38.6220853 9.27788574,37.5375158 C8.72349038,37.1795809 8.40861535,36.5417571 8.42476279,35.8850947 L8.45436643,34.4076042 C8.51088246,31.7029084 6.629706,29.3400001 3.97883502,28.7936784 L2.52556565,28.4949508 C1.88235939,28.3603888 1.32796404,27.9109518 1.10459115,27.2892755 C0.544813324,25.733739 0.176113502,24.116304 0.00925664897,22.4665742 C-0.0580243403,21.812603 0.246085731,21.172088 0.770877448,20.7710933 L1.94156666,19.8749105 C4.09186708,18.2332543 4.76467697,15.286347 3.54016297,12.8723051 L2.87273555,11.5589802 C2.57400796,10.9695987 2.57939044,10.2564202 2.92386911,9.69395117 C3.79313949,8.28912412 4.82926672,6.9892554 6.0107209,5.83202239 C6.47899658,5.37182042 7.17333639,5.20496357 7.81116017,5.36643794 L9.24289962,5.7243728 C11.8668582,6.38103526 14.5877014,5.07040159 15.7126396,2.60791738 L16.3262422,1.26498883 C16.5980574,0.667533647 17.1605264,0.226170357 17.8144977,0.14543317 C18.6353257,0.0458573059 19.458845,-0.00258500643 20.2877468,0 C21.1247223,0 21.9482416,0.0485485454 22.760996,0.14543317 C23.4149672,0.226170357 23.9720538,0.664842408 24.2465602,1.26498883 L24.8574716,2.60522614 C25.9824098,5.07040159 28.703253,6.38103526 31.3299028,5.7243728 L32.758951,5.36643794 C33.3967748,5.20496357 34.0911146,5.37182042 34.5620815,5.83202239 C35.7408445,6.9892554 36.7769717,8.28912412 37.6462421,9.69395117 C37.9907207,10.2564202 37.9987945,10.9695987 37.7000669,11.5589802 L37.0326394,12.8749963 C35.8054342,15.286347 36.4782441,18.2332543 38.6312358,19.8776017 L39.801925,20.7710933 C40.3240254,21.172088 40.6281355,21.812603 40.5608545,22.4665742 C40.3939977,24.116304 40.0252979,25.733739 39.46552,27.2892755 C39.2421471,27.9109518 38.6877518,28.3603888 38.0418543,28.4949508 L36.5939674,28.7909872 C33.9430964,29.3400001 32.06192,31.7002172 32.1157447,34.4076042 L32.1480396,35.8850947 C32.1614958,36.5417571 31.8466208,37.1795809 31.2922254,37.5375158 C29.9008546,38.4310073 28.4072166,39.1522595 26.8382239,39.685125 C26.2165476,39.8950417 25.5195166,39.741641 25.0135635,39.3218076 L23.8751692,38.3744913 C21.794841,36.6440243 18.7752702,36.6440243 16.694942,38.3744913 L14.7437933,40 Z" id="Fill-2" fill="#FFFFFF"></path>
                <path d="M12.5463962,15.2214881 C12.3903043,15.310299 12.2934197,15.4771559 12.2934197,15.6547777 L12.2934197,24.5923843 L14.7559039,26.0133588 L14.7559039,16.6909049 L17.2156969,15.2672392 L17.2156969,27.4343333 L19.6754898,28.8526166 L19.6754898,11.9758532 C19.6754898,11.5856235 19.2583477,11.3461031 18.9219427,11.5398724 L12.5463962,15.2214881 Z" id="Fill-3" fill="#1B604F"></path>
                <path d="M21.6492449,11.5396033 C21.31284,11.345834 20.8930066,11.5880456 20.8930066,11.9755841 L20.8930066,28.8550387 L23.3554908,27.4340642 L23.3554908,15.2669701 L25.8152838,16.6906358 L25.8152838,26.0130897 L28.2750768,24.5948064 L28.2750768,15.6545086 C28.2750768,15.4768868 28.1808834,15.3100299 28.0247915,15.221219 L21.6492449,11.5396033 Z" id="Fill-4" fill="#1B604F"></path>
            </g>
        </g>
    </g>
</svg>