<?xml version="1.0" standalone="no"?><!DOCTYPE svg PUBLIC "-//W3C//DTD SVG 1.1//EN" "http://www.w3.org/Graphics/SVG/1.1/DTD/svg11.dtd"><svg t="1672469915350" class="icon" viewBox="0 0 1024 1024" version="1.1" xmlns="http://www.w3.org/2000/svg" p-id="1048" xmlns:xlink="http://www.w3.org/1999/xlink" width="200" height="200"><path d="M870.4 786.2784a51.2 51.2 0 1 1 0 102.4H153.6a51.2 51.2 0 0 1 0-102.4h716.8zM321.8432 347.4432v329.1136L102.4 512l219.4432-164.5568zM844.8 566.784a51.2 51.2 0 1 1 0 102.4h-358.4a51.2 51.2 0 0 1 0-102.4h358.4z m0-219.392a51.2 51.2 0 0 1 0 102.4h-358.4a51.2 51.2 0 1 1 0-102.4h358.4zM870.4 128a51.2 51.2 0 0 1 0 102.4H153.6a51.2 51.2 0 1 1 0-102.4h716.8z" p-id="1049"></path></svg>