<?xml version="1.0" standalone="no"?><!DOCTYPE svg PUBLIC "-//W3C//DTD SVG 1.1//EN" "http://www.w3.org/Graphics/SVG/1.1/DTD/svg11.dtd"><svg t="1678356607931" class="icon" viewBox="0 0 1024 1024" version="1.1" xmlns="http://www.w3.org/2000/svg" p-id="1515" xmlns:xlink="http://www.w3.org/1999/xlink" width="200" height="200"><path d="M944 521.6a160 160 0 0 1-130.688 290.368l-17.6 30.464 83.2 48a32 32 0 0 1-32 55.424l-83.2-48-16 27.712 27.712 16a32 32 0 0 1-32 55.424l-27.712-16-16 27.712a32 32 0 0 1-55.424-32l113.6-196.736A160 160 0 0 1 944 521.6zM581.824 640a32 32 0 0 1 5.76 63.488l-5.76 0.512H224a160 160 0 0 0-159.68 149.504L64 864V960h416a32 32 0 0 1 31.488 26.24L512 992a32 32 0 0 1-26.24 31.488L480 1024H0v-160a224 224 0 0 1 211.712-223.68L224 640h357.824z m199.04-27.84a96 96 0 1 0 166.272 96 96 96 0 0 0-166.272-96zM544 0a288 288 0 1 1 0 576 288 288 0 0 1 0-576z m0 64a224 224 0 1 0 0 448 224 224 0 0 0 0-448z" fill="" p-id="1516"></path></svg>