<?xml version="1.0" encoding="UTF-8"?>
<svg width="14px" height="14px" viewBox="0 0 14 14" version="1.1" xmlns="http://www.w3.org/2000/svg" xmlns:xlink="http://www.w3.org/1999/xlink">
    <title>边栏icon-01备份</title>
    <g id="页面-1" stroke="none" stroke-width="1" fill="none" fill-rule="evenodd">
        <g id="项目管理-详情" transform="translate(-56.000000, -114.000000)">
            <g id="边栏icon-01备份" transform="translate(56.000000, 114.000000)">
                <path d="M11.2518,1.61 C11.879454,1.61230334 12.3876967,2.12054605 12.39,2.7482 L12.39,11.2518 C12.3892286,11.8816371 11.8788371,12.3920286 11.249,12.3928 L2.7482,12.3928 C2.11945664,12.3904889 1.61076628,11.8805471 1.61,11.2518 L1.61,2.7482 C1.61230334,2.12054605 2.12054605,1.61230334 2.7482,1.61 L11.2518,1.61 M11.2518,1.05 L2.7482,1.05 C1.81110873,1.0519254 1.0519254,1.81110873 1.05,2.7482 L1.05,11.2518 C1.0519254,12.1888913 1.81110873,12.9480746 2.7482,12.95 L11.2518,12.95 C12.1910763,12.9496137 12.9524137,12.1882763 12.9528,11.249 L12.9528,2.7482 C12.9508705,1.81001735 12.1899846,1.05038394 11.2518,1.05 Z" id="形状" fill="#FFFFFF" fill-rule="nonzero"></path>
                <path d="M10.7212,4.8027 L7.3199,4.8027 C7.08794041,4.8027 6.8999,4.99074041 6.8999,5.2227 C6.8999,5.45465959 7.08794041,5.6427 7.3199,5.6427 L10.7212,5.6427 C10.9531596,5.6427 11.1412,5.45465959 11.1412,5.2227 C11.1412,4.99074041 10.9531596,4.8027 10.7212,4.8027 L10.7212,4.8027 Z M10.7212,8.204 L7.3199,8.204 C7.08794041,8.204 6.8999,8.39204041 6.8999,8.624 C6.8999,8.85595959 7.08794041,9.044 7.3199,9.044 L10.7212,9.044 C10.9531596,9.044 11.1412,8.85595959 11.1412,8.624 C11.1412,8.39204041 10.9531596,8.204 10.7212,8.204 L10.7212,8.204 Z M4.7684,7.13999984 C3.94533004,7.13999984 3.2781,7.80723004 3.2781,8.6303 C3.2781,9.45336996 3.94533004,10.1206 4.7684,10.1206 C5.59146996,10.1206 6.25870016,9.45336996 6.25870016,8.6303 C6.25888581,8.23499093 6.10193218,7.85581933 5.82240643,7.57629357 C5.54288067,7.29676782 5.16370907,7.13981419 4.7684,7.13999984 Z M5.2178,9.079 C4.9679008,9.32874115 4.56287543,9.32865574 4.31308159,9.07880921 C4.06328775,8.82896269 4.06328775,8.42393731 4.31308159,8.17409079 C4.56287543,7.92424426 4.9679008,7.92415885 5.2178,8.1739 C5.33724209,8.29270063 5.40341557,8.45485092 5.4012,8.6233 C5.41012437,8.79561038 5.34309722,8.96317825 5.2178,9.0818 L5.2178,9.079 Z M5.74,4.0817 L4.34,5.4817 L3.7891,4.9301 C3.62344219,4.76463549 3.35501451,4.7647922 3.18955001,4.93045001 C3.0240855,5.09610781 3.0242422,5.36453549 3.1899,5.53 L4.0404,6.3812 C4.20691201,6.544116 4.47308799,6.544116 4.6396,6.3812 L6.3399,4.6802 C6.50517121,4.51454219 6.50485781,4.24627121 6.3392,4.081 C6.17354219,3.91572879 5.90527121,3.91604219 5.74,4.0817 L5.74,4.0817 Z" id="形状" fill="#FFFFFF" fill-rule="nonzero"></path>
                <rect id="矩形" x="0" y="0" width="14" height="14"></rect>
            </g>
        </g>
    </g>
</svg>