<?xml version="1.0" encoding="UTF-8"?>
<svg width="15px" height="14px" viewBox="0 0 15 14" version="1.1" xmlns="http://www.w3.org/2000/svg" xmlns:xlink="http://www.w3.org/1999/xlink">
    <title>边栏icon-21</title>
    <g id="页面-1" stroke="none" stroke-width="1" fill="none" fill-rule="evenodd">
        <g id="icon" transform="translate(-21.000000, -10.000000)">
            <g id="边栏icon-21" transform="translate(21.500000, 10.000000)">
                <rect id="矩形" x="0" y="0" width="14" height="14"></rect>
                <path d="M5.9395,8.0563 L5.9395,10.78 C5.9395,11.2079706 5.76910957,11.6183313 5.46596374,11.9204264 C5.16281791,12.2225215 4.751868,12.3914886 4.3239,12.3900098 L3.22,12.3900098 C2.33077479,12.3884685 1.60964815,11.6692182 1.6058,10.78 L1.6058,9.6719 C1.60695488,8.78065386 2.32875519,8.05822752 3.22,8.0563 L5.9395,8.0563 M6.1369,7.4963 L3.22,7.4963 C2.01860937,7.49668636 1.04478636,8.47050937 1.0444,9.6719 L1.0444,10.78 C1.04787143,11.9792031 2.02079192,12.9496193 3.22,12.9500072 L4.3239,12.9500072 C4.90038944,12.9514877 5.45377717,12.7235203 5.8619431,12.316405 C6.27010902,11.9092897 6.4995,11.3564914 6.4995,10.78 L6.4995,7.8589 C6.49911482,7.65880131 6.33699869,7.49668518 6.1369,7.4963 L6.1369,7.4963 Z" id="形状" fill="#FFFFFF" fill-rule="nonzero"></path>
                <path d="M4.3239,1.61 C5.21351322,1.61114477 5.93526631,2.33039612 5.9395,3.22 L5.9395,5.9437 L3.22,5.9437 C2.32875519,5.94177248 1.60695488,5.21934614 1.6058,4.3281 L1.6058,3.22 C1.60964815,2.33078179 2.33077479,1.61153146 3.22,1.61 L4.3239,1.61 M4.3239,1.05 L3.22,1.05 C2.0213384,1.05115162 1.04926936,2.02134287 1.0458,3.22 L1.0458,4.3281 C1.04618569,5.52894436 2.01915614,6.50254132 3.22,6.503711 L6.1369,6.503711 C6.23329641,6.50445313 6.32596337,6.46649263 6.394128,6.398328 C6.46229263,6.33016337 6.50025313,6.23749641 6.499511,6.1411 L6.499511,3.22 C6.49602857,2.02079689 5.52310808,1.0503807 4.3239,1.05 Z" id="形状" fill="#FFFFFF" fill-rule="nonzero"></path>
                <path d="M7.5096,3.7527 C7.5208,3.3467 7.8778,3.0331 8.2838,3.0331 L9.282,3.0331 C9.39163475,3.03271599 9.48041599,2.94393475 9.4808,2.8343 L9.4808,1.8039 C9.48124668,1.6023465 9.56343764,1.40959604 9.70857221,1.26973909 C9.85370678,1.12988214 10.0493682,1.05488399 10.2508,1.0619 C10.6561,1.0731 10.9697,1.4301 10.9697,1.8361 L10.9697,2.8343 C10.970084,2.94393475 11.0588652,3.03271599 11.1685,3.0331 L12.166,3.0331 C12.5741,3.0331 12.9311,3.3467 12.936,3.7527 C12.9436129,3.95429578 12.8688119,4.15030084 12.7288263,4.29556897 C12.5888406,4.4408371 12.3957394,4.52284369 12.194,4.5227 L11.1671,4.5227 C11.0574652,4.52308401 10.968684,4.61186525 10.9683,4.7215 L10.9683,5.7498 C10.9678533,5.9513535 10.8856624,6.14410396 10.7405278,6.28396091 C10.5953932,6.42381786 10.3997318,6.49881601 10.1983,6.4918 C9.7923,6.4806 9.4787,6.1236 9.4787,5.7176 L9.4787,4.7194 C9.47831599,4.60976525 9.38953475,4.52098401 9.2799,4.5206 L8.2516,4.5206 C8.05035461,4.51918301 7.85817983,4.43668906 7.71853356,4.29177312 C7.57888728,4.14685717 7.50356504,3.95175987 7.5096,3.7506 L7.5096,3.7527 Z" id="路径" fill="#FFFFFF" fill-rule="nonzero"></path>
                <path d="M10.78,8.0563 C11.6717916,8.05745692 12.3944431,8.78010841 12.3956,9.6719 L12.3956,10.78 C12.3917485,11.6697636 11.6697716,12.389238 10.78,12.39 L9.6761,12.39 C8.78648678,12.3888552 8.06473369,11.6696039 8.0605,10.78 L8.0605,8.0563 L10.78,8.0563 M10.78,7.4963 L7.8631,7.4963 C7.66300131,7.49668518 7.50088518,7.65880131 7.5005,7.8589 L7.5005,10.78 C7.50397143,11.9792031 8.47689192,12.9496193 9.6761,12.95 L10.78,12.95 C11.9786616,12.9488484 12.9507306,11.9786571 12.9542,10.78 L12.9542,9.6719 C12.9538143,8.47105564 11.9808439,7.49745868 10.78,7.4963 L10.78,7.4963 Z" id="形状" fill="#FFFFFF" fill-rule="nonzero"></path>
            </g>
        </g>
    </g>
</svg>