<?xml version="1.0" standalone="no"?><!DOCTYPE svg PUBLIC "-//W3C//DTD SVG 1.1//EN" "http://www.w3.org/Graphics/SVG/1.1/DTD/svg11.dtd"><svg t="1678361877188" class="icon" viewBox="0 0 1024 1024" version="1.1" xmlns="http://www.w3.org/2000/svg" p-id="1455" xmlns:xlink="http://www.w3.org/1999/xlink" width="200" height="200"><path d="M206.16533333 261.70709333a192.07509333 192.07509333 0 1 1 384.09557334 0 192.07509333 192.07509333 0 0 1-384.09557334 0zM398.24042667 135.168a126.53909333 126.53909333 0 1 0 0 253.02357333 126.53909333 126.53909333 0 0 0 0-253.02357333zM752.29866667 261.70709333c0-45.98442667-24.52138667-86.28906667-61.33077334-108.46208l33.86026667-56.14250666a191.96586667 191.96586667 0 0 1 0 329.20917333l-33.86026667-56.14250667A126.42986667 126.42986667 0 0 0 752.29866667 261.70709333zM346.68544 570.27242667H449.7408c49.69813333 0 89.07434667 0 120.80469333 2.56682666 32.33109333 2.62144 59.63776 8.192 84.48682667 20.80768 40.41386667 20.58922667 73.29109333 53.52106667 93.88032 93.93493334 12.67029333 24.79445333 18.18624 52.10112 20.80768 84.48682666 2.62144 31.67573333 2.62144 70.99733333 2.62144 120.80469334V954.368h-748.20266667v-61.54922667c0-49.69813333 0-89.01973333 2.56682667-120.75008 2.62144-32.38570667 8.192-59.69237333 20.80768-84.54144a214.84885333 214.84885333 0 0 1 93.93493333-93.88032c24.79445333-12.67029333 52.10112-18.13162667 84.48682667-20.75306666 31.67573333-2.62144 70.99733333-2.62144 120.80469333-2.62144zM171.2128 652.0832c-28.07125333 14.30869333-50.89962667 37.13706667-65.20832 65.20832-7.20896 14.09024-11.63264 31.78496-13.9264 60.07466667-2.23914667 27.74357333-2.34837333 62.80533333-2.34837333 111.46581333h617.13066666c0-48.66048-0.10922667-83.72224-2.40298666-111.4112-2.29376-28.39893333-6.71744-46.03904-13.87178667-60.07466667a149.31285333 149.31285333 0 0 0-65.26293333-65.26293333c-14.09024-7.20896-31.78496-11.63264-60.07466667-13.9264-28.72661333-2.34837333-65.37216-2.34837333-116.87253333-2.34837333H348.16c-51.50037333 0-88.20053333 0-116.87253333 2.34837333-28.39893333 2.29376-46.03904 6.71744-60.07466667 13.9264zM882.60608 593.64693333c40.41386667 20.64384 73.23648 53.52106667 93.88032 93.93493334 12.67029333 24.84906667 18.13162667 52.10112 20.75306667 84.48682666 2.62144 31.67573333 2.62144 70.99733333 2.62144 120.80469334v28.72661333h-65.536V894.29333333c0-51.50037333 0-88.20053333-2.34837334-116.87253333-2.34837333-28.39893333-6.71744-46.03904-13.9264-60.07466667" fill="" p-id="1456"></path></svg>