<?xml version="1.0" standalone="no"?><!DOCTYPE svg PUBLIC "-//W3C//DTD SVG 1.1//EN" "http://www.w3.org/Graphics/SVG/1.1/DTD/svg11.dtd"><svg t="1676428387971" class="icon" viewBox="0 0 1024 1024" version="1.1" xmlns="http://www.w3.org/2000/svg" p-id="1572" xmlns:xlink="http://www.w3.org/1999/xlink" width="200" height="200"><path d="M971.92 428.2H858.65a21.66 21.66 0 0 0 0 43.31h113.27a21.66 21.66 0 0 0 0-43.31zM971.92 291.06H786.25a21.66 21.66 0 1 0 0 43.31h185.67a21.66 21.66 0 0 0 0-43.31zM727.25 197.23h244.67a21.65 21.65 0 1 0 0-43.3H727.25a21.65 21.65 0 1 0 0 43.3zM515.44 499.3c109.07 0 197.81-88.74 197.81-197.81s-88.74-197.8-197.81-197.8-197.81 88.73-197.81 197.8S406.36 499.3 515.44 499.3z m0-352.31c85.2 0 154.5 69.31 154.5 154.5S600.64 456 515.44 456s-154.5-69.31-154.5-154.5S430.24 147 515.44 147zM771.06 571.76H259.8c-101.26 0-183.62 82.37-183.62 183.63S158.54 939 259.8 939h511.26c101.25 0 183.64-82.38 183.64-183.64s-82.39-183.6-183.64-183.6z m0 324H259.8c-77.38 0-140.31-63-140.31-140.33s62.93-140.37 140.31-140.37h511.26c77.38 0 140.33 63 140.33 140.33s-62.95 140.33-140.33 140.33z" fill="" p-id="1573"></path></svg>