<?xml version="1.0" standalone="no"?><!DOCTYPE svg PUBLIC "-//W3C//DTD SVG 1.1//EN" "http://www.w3.org/Graphics/SVG/1.1/DTD/svg11.dtd"><svg t="1672469882517" class="icon" viewBox="0 0 1024 1024" version="1.1" xmlns="http://www.w3.org/2000/svg" p-id="899" xmlns:xlink="http://www.w3.org/1999/xlink" width="200" height="200"><path d="M153.6 237.7216a51.2 51.2 0 1 1 0-102.4L870.4 135.3216a51.2 51.2 0 0 1 0 102.4l-716.8 0zM702.1568 676.5568l0-329.1136L921.59999999 512l-219.44319999 164.5568zM179.2 457.216a51.2 51.2 0 1 1 1e-8-102.4l358.39999999 0a51.2 51.2 0 0 1 0 102.4l-358.4 0z m0 219.392a51.2 51.2 0 0 1 1e-8-102.4l358.39999999 0a51.2 51.2 0 1 1 0 102.4l-358.4 0zM153.6 896a51.2 51.2 0 0 1 0-102.4L870.4 793.6a51.2 51.2 0 1 1 0 102.4l-716.8 0z" p-id="900"></path></svg>