<?xml version="1.0" standalone="no"?><!DOCTYPE svg PUBLIC "-//W3C//DTD SVG 1.1//EN" "http://www.w3.org/Graphics/SVG/1.1/DTD/svg11.dtd">
<svg t="1672904277348" class="icon" viewBox="0 0 1024 1024" version="1.1"
    xmlns="http://www.w3.org/2000/svg" p-id="1135"
    xmlns:xlink="http://www.w3.org/1999/xlink" width="200" height="200">
    <path d="M499.008 480a208 208 0 1 1 0-416 208 208 0 0 1 0 416z m-124.288 33.984c37.248 12.8 37.248 39.04 124.288 39.04 87.04 0 87.04-26.24 124.288-39.04h182.72a128 128 0 0 1 128 128v192a64 64 0 0 1-64 64H128a64 64 0 0 1-64-64v-193.152a128 128 0 0 1 128.832-128l181.888 1.152z" fill="" p-id="1136"></path>
</svg>